# xmcd
#
# Track frame offsets:
# 150
# 17930
# 39842
# 61141
# 76184
# 94160
# 110237
# 127729
# 146569
# 162413
# 179723
# 206272
#
# Disc length: 2976 seconds
#
#
# Revision: 13
# Processed by: cddbd v1.5.1PL0 Copyright (c) Steve Scherf et al.
# Submitted via: FreeRIP 2.90 
#
DISCID=9d0b9e0c
DTITLE=Kenny Chesney - No Shoes, No Shirt, No Problems
DYEAR=2002
DGENRE=Country
TTITLE0=Young
TTITLE1=I Remember
TTITLE2=A Lot Of Things Different
TTITLE3=The Good Stuff
TTITLE4=Big Star
TTITLE5=On The Coast Of Somewhere Beautiful
TTITLE6=Never Gonna Feel That Way Again
TTITLE7=Dreams
TTITLE8=No Shoes, No Shirt, No Problems
TTITLE9=Live Those Songs
TTITLE10=One Step Up
TTITLE11=I Can't Go There (Acoustic Version)
EXTD=
EXTT0=
EXTT1=
EXTT2=
EXTT3=
EXTT4=
EXTT5=
EXTT6=
EXTT7=
EXTT8=
EXTT9=
EXTT10=
EXTT11=
PLAYORDER=
